<svg xmlns="http://www.w3.org/2000/svg" xmlns:xlink="http://www.w3.org/1999/xlink" width="48" height="48" viewBox="0 0 48 48"><defs><style>.a{clip-path:url(#b);}</style><clipPath id="b"><rect width="48" height="48"/></clipPath></defs><g id="a" class="a"><path d="M152.46,177.107c.4.021.777.021,1.176.021a24.849,24.849,0,0,0,17.11-6.649,21.9,21.9,0,0,0,7.079-16.07,21.647,21.647,0,0,0-2.352-9.817,22.576,22.576,0,0,0-2.463-3.793,26.872,26.872,0,0,1,4.882.959c10.386,3.085,17.908,12.193,17.908,22.968,0,13.3-11.473,24.073-25.631,24.073a26.264,26.264,0,0,1-19.528-8.483,23.536,23.536,0,0,1-2.84-3.856A24.552,24.552,0,0,0,152.46,177.107Z" transform="translate(-147.8 -140.8)"/></g></svg>