<svg xmlns="http://www.w3.org/2000/svg" xmlns:xlink="http://www.w3.org/1999/xlink" width="48" height="48" viewBox="0 0 48 48"><defs><clipPath id="b"><rect width="48" height="48"/></clipPath></defs><g id="a" clip-path="url(#b)"><g transform="translate(0.098 -0.18)"><path d="M23.737.195a1.992,1.992,0,0,0-1.742,2v4a1.991,1.991,0,1,0,3.981,0v-4a2,2,0,0,0-2.24-2ZM8.06,6.564A1.981,1.981,0,0,0,6.5,7.969,2.012,2.012,0,0,0,7.065,10l2.8,2.81a1.994,1.994,0,1,0,2.8-2.81l-2.8-2.81a1.986,1.986,0,0,0-1.431-.624H8.06Zm31.23,0a2,2,0,0,0-1.182.624L35.308,10a2,2,0,1,0,2.8,2.81l2.8-2.81a2,2,0,0,0-1.431-3.434Zm-15.3,3.622A13.988,13.988,0,1,0,37.921,24.174,14.019,14.019,0,0,0,23.986,10.186Zm0,4a9.991,9.991,0,1,1-9.954,9.991A9.992,9.992,0,0,1,23.986,14.183ZM1.715,22.176a2.007,2.007,0,0,0,.373,4H6.069a2,2,0,0,0,1.75-.991,2.024,2.024,0,0,0,0-2.014,2,2,0,0,0-1.75-.991H1.715Zm39.815,0a2.007,2.007,0,0,0,.373,4h3.981a2,2,0,0,0,1.75-.991,2.024,2.024,0,0,0,0-2.014,2,2,0,0,0-1.75-.991H41.529Zm-30.545,12.8a1.967,1.967,0,0,0-1.12.624l-2.8,2.748a2.005,2.005,0,0,0,2.8,2.872l2.8-2.81a2,2,0,0,0-1.68-3.434Zm25.32,0a1.981,1.981,0,0,0-1.555,1.405,2.012,2.012,0,0,0,.56,2.029l2.8,2.81a2.005,2.005,0,0,0,2.8-2.872l-2.8-2.748a1.994,1.994,0,0,0-1.617-.624ZM23.737,40.16a1.992,1.992,0,0,0-1.742,2v4a1.991,1.991,0,1,0,3.981,0v-4a2,2,0,0,0-2.24-2Zm0,0" transform="translate(0 0)" fill="#fff"/></g></g></svg>