<svg width="20" height="20" viewBox="0 0 20 20" fill="none" xmlns="http://www.w3.org/2000/svg">
<g clip-path="url(#clip0)">
<path d="M10 4.28575C8.48214 4.28575 7.06287 4.54431 5.74219 5.06142C4.4215 5.57853 3.3724 6.27608 2.59487 7.15405C1.81734 8.03203 1.42857 8.98069 1.42857 10C1.42857 10.8334 1.69457 11.6276 2.22656 12.3828C2.75856 13.1381 3.50818 13.791 4.47545 14.3416L5.44643 14.8996L5.14509 15.971C4.96652 16.6481 4.7061 17.288 4.36384 17.8907C5.49479 17.4219 6.51786 16.7858 7.43304 15.9822L7.91295 15.5581L8.54911 15.625C9.0625 15.6846 9.54613 15.7143 10 15.7143C11.5179 15.7143 12.9371 15.4558 14.2578 14.9387C15.5785 14.4215 16.6276 13.724 17.4051 12.846C18.1827 11.968 18.5714 11.0194 18.5714 10C18.5714 8.98069 18.1827 8.03203 17.4051 7.15405C16.6276 6.27608 15.5785 5.57853 14.2578 5.06142C12.9371 4.54431 11.5179 4.28575 10 4.28575ZM20 10C20 11.2947 19.5536 12.4907 18.6607 13.5882C17.7679 14.6857 16.5551 15.5525 15.0223 16.1887C13.4896 16.8248 11.8155 17.1429 10 17.1429C9.47917 17.1429 8.93973 17.1131 8.3817 17.0536C6.90848 18.3557 5.19717 19.256 3.24777 19.7545C2.88318 19.8587 2.45908 19.9405 1.97545 20H1.91964C1.80804 20 1.70759 19.961 1.6183 19.8828C1.52902 19.8047 1.46949 19.7024 1.43973 19.5759V19.5648C1.41741 19.535 1.41555 19.4904 1.43415 19.4308C1.45275 19.3713 1.46019 19.3341 1.45647 19.3192C1.45275 19.3044 1.46949 19.269 1.5067 19.2132L1.57366 19.1128L1.65179 19.0179L1.74107 18.9174C1.79315 18.8579 1.90848 18.7296 2.08705 18.5324C2.26562 18.3352 2.39397 18.1939 2.4721 18.1083C2.55022 18.0227 2.66555 17.8758 2.81808 17.6674C2.97061 17.4591 3.09152 17.2694 3.1808 17.0983C3.27009 16.9271 3.37054 16.7076 3.48214 16.4398C3.59375 16.1719 3.69048 15.8892 3.77232 15.5916C2.60417 14.9294 1.68341 14.1109 1.01004 13.1362C0.336682 12.1615 0 11.1161 0 10C0 8.70539 0.446429 7.50934 1.33929 6.41187C2.23214 5.3144 3.44494 4.44758 4.97768 3.81142C6.51042 3.17526 8.18452 2.85718 10 2.85718C11.8155 2.85718 13.4896 3.17526 15.0223 3.81142C16.5551 4.44758 17.7679 5.3144 18.6607 6.41187C19.5536 7.50934 20 8.70539 20 10Z" fill="#535461"/>
</g>
<defs>
<clipPath id="clip0">
<rect width="20" height="20" fill="white"/>
</clipPath>
</defs>
</svg>
