<svg width="103" height="103" viewBox="0 0 103 103" fill="none" xmlns="http://www.w3.org/2000/svg">
<path d="M87.9791 10.729H15.0208L21.4583 83.6873L51.4999 92.2707L81.5416 83.6873L87.9791 10.729Z" fill="#0277BD"/>
<path d="M51.5 17.1665V85.6186L75.5333 78.7519L80.8979 17.1665H51.5Z" fill="#039BE5"/>
<path d="M71.0271 27.896H51.5V36.4793H62.0146L61.3708 45.0627H51.5V53.646H60.9417L60.2979 63.3022L51.5 66.3064V75.3189L68.4521 69.7397L69.9542 45.0627L71.0271 27.896Z" fill="white"/>
<path d="M51.5 27.896V36.4793H32.4021L31.7583 27.896H51.5ZM41.6291 45.0627L42.0583 53.646H51.5V45.0627H41.6291ZM42.4875 57.9377H33.9041L34.5479 69.7397L51.5 75.3189V66.3064L42.7021 63.3022L42.4875 57.9377Z" fill="#EEEEEE"/>
</svg>
