<svg width="55" height="55" viewBox="0 0 55 55" fill="none" xmlns="http://www.w3.org/2000/svg">
<path d="M45.8333 9.16663H9.16659C6.64575 9.16663 4.60617 11.2291 4.60617 13.75L4.58325 41.25C4.58325 43.7708 6.64575 45.8333 9.16659 45.8333H45.8333C48.3541 45.8333 50.4166 43.7708 50.4166 41.25V13.75C50.4166 11.2291 48.3541 9.16663 45.8333 9.16663ZM44.9166 18.9062L28.7145 29.0354C27.9812 29.4937 27.0187 29.4937 26.2853 29.0354L10.0833 18.9062C9.51034 18.5395 9.16659 17.9208 9.16659 17.2562C9.16659 15.7208 10.8395 14.8041 12.1458 15.6062L27.4999 25.2083L42.8541 15.6062C44.1603 14.8041 45.8333 15.7208 45.8333 17.2562C45.8333 17.9208 45.4895 18.5395 44.9166 18.9062Z" fill="black" fill-opacity="0.6"/>
</svg>
