<svg width="92" height="92" viewBox="0 0 92 92" fill="none" xmlns="http://www.w3.org/2000/svg">
<path d="M45.9998 7.66663C24.8398 7.66663 7.6665 24.84 7.6665 46C7.6665 67.16 24.8398 84.3333 45.9998 84.3333C67.1598 84.3333 84.3332 67.16 84.3332 46C84.3332 24.84 67.1598 7.66663 45.9998 7.66663ZM45.9998 49.8333C43.8915 49.8333 42.1665 48.1083 42.1665 46V30.6666C42.1665 28.5583 43.8915 26.8333 45.9998 26.8333C48.1082 26.8333 49.8332 28.5583 49.8332 30.6666V46C49.8332 48.1083 48.1082 49.8333 45.9998 49.8333ZM49.8332 65.1666H42.1665V57.5H49.8332V65.1666Z" fill="#FF0000"/>
</svg>
