<svg width="102" height="102" viewBox="0 0 102 102" fill="none" xmlns="http://www.w3.org/2000/svg">
<path d="M12.75 89.25V12.75H89.25V89.25H12.75Z" fill="#FFD600"/>
<path d="M62.7681 70.0124C64.2386 72.4009 65.8366 74.6895 69.2218 74.6895C72.065 74.6895 73.5568 73.2764 73.5568 71.3214C73.5568 68.9817 72.014 68.1509 68.886 66.7887L67.1711 66.0578C62.222 63.9583 58.9304 61.3275 58.9304 55.7706C58.9304 50.6494 62.851 46.7521 68.9774 46.7521C73.34 46.7521 76.4744 48.263 78.7354 52.2197L73.3931 55.6346C72.218 53.5351 70.9473 52.7085 68.9774 52.7085C66.9671 52.7085 65.6943 53.9771 65.6943 55.6346C65.6943 57.6831 66.9693 58.5119 69.9124 59.7805L71.6273 60.5115C77.4604 62.9956 80.7499 65.5329 80.7499 71.2364C80.7499 77.3819 75.8964 80.75 69.3811 80.75C63.0083 80.75 59.3894 77.5519 57.3749 73.593L62.7681 70.0124ZM38.1479 70.1866C39.2231 72.1119 40.8573 73.593 43.2075 73.593C45.4558 73.593 46.7499 72.7048 46.7499 69.2516V46.75H53.8325V70.3396C53.8325 77.4945 49.6824 80.75 43.6219 80.75C38.1458 80.75 34.1933 77.0397 32.5825 73.593L38.1479 70.1866Z" fill="#000001"/>
</svg>
