<svg width="926" height="639" viewBox="0 0 926 639" fill="none" xmlns="http://www.w3.org/2000/svg">
<g clip-path="url(#clip0)">
<path opacity="0.1" d="M523.773 86.9962C464.417 87.0756 407.285 70.2571 352.639 51.5734C297.992 32.8897 243.766 11.9677 185.514 3.10209C148.051 -2.59668 105.45 -2.07284 76.1656 18.6189C47.9767 38.5249 39.8138 71.4714 35.8753 101.91C32.9135 124.808 31.5477 148.841 42.6407 169.787C50.343 184.328 63.5242 196.312 72.8147 210.171C105.244 258.38 85.7418 319.963 54.2259 369.291C39.4486 392.436 22.1382 414.62 10.9659 439.089C-0.206404 463.559 -4.78809 491.307 6.60656 515.459C17.898 539.397 43.403 556.771 70.7739 568.637C126.358 592.782 191.073 597.956 254.049 599.949C393.453 604.37 533.127 595.353 672.427 586.337C723.977 583.003 775.757 579.646 826.243 569.986C854.273 564.629 883.137 556.676 903.012 539.246C928.239 517.118 933.401 480.989 915.042 455.019C884.257 411.461 803.081 403.246 781.006 356.116C768.833 330.17 779.331 300.414 794.791 275.405C827.95 221.743 885.027 173.676 885.988 113.657C886.647 72.4397 856.965 32.2309 812.633 14.3171C766.165 -4.446 702.808 0.379699 670.252 35.3501C636.774 71.3762 576.18 86.9406 523.773 86.9962Z" fill="#FA5959"/>
<path d="M788.121 512.222C788.121 512.222 778.362 505.785 768.69 510.365C768.69 510.365 771.668 516.096 783.912 515.556L788.121 512.222Z" fill="#FA5959"/>
<path d="M789.36 512.563C789.36 512.563 792.329 523.866 784.881 531.557C784.881 531.557 780.403 526.898 784.881 515.484L789.36 512.563Z" fill="#FA5959"/>
<path d="M801.493 501.714C801.493 501.714 800.77 492.102 779.053 495.293C779.053 495.293 778.95 501.491 786.572 504.428C794.195 507.365 797.689 504.888 801.493 501.714Z" fill="#FA5959"/>
<path d="M802.858 501.65C802.858 501.65 812.038 504.595 803.851 524.953C803.851 524.953 797.792 523.604 796.704 515.5C795.617 507.397 798.84 504.603 802.858 501.65Z" fill="#FA5959"/>
<path d="M815.119 488.014C815.119 488.014 816.365 472.196 794.171 473.815C794.171 473.815 792.583 488.102 811.204 491.816L815.119 488.014Z" fill="#FA5959"/>
<path d="M829.785 470.156C829.785 470.156 826.743 452.227 804.558 457.568C804.558 457.568 804.478 473.069 826.164 474.426L829.785 470.156Z" fill="#FA5959"/>
<path d="M840.504 451.695C840.504 451.695 835.407 434.233 813.427 439.456C813.427 439.456 818.66 455.163 839.043 454.917L840.504 451.695Z" fill="#FA5959"/>
<path d="M850.684 433.662C850.684 433.662 845.705 415.542 824.48 420.963C824.48 420.963 831.563 438.178 849.279 436.726L850.684 433.662Z" fill="#FA5959"/>
<path d="M857.243 416.534C857.243 416.534 853.416 394.374 833.628 399.279C833.628 399.279 839.377 419.439 855.79 419.764L857.243 416.534Z" fill="#FA5959"/>
<path d="M863.397 395.842C863.397 395.842 858.799 373.507 838.781 379.968C838.781 379.968 846.626 401.08 861.975 398.898L863.397 395.842Z" fill="#FA5959"/>
<path d="M867.177 376.587C867.177 376.587 859.879 354.244 844.403 354.847C844.403 354.847 851.859 378.444 865.882 381.039L867.177 376.587Z" fill="#FA5959"/>
<path d="M869.622 357.792C869.622 357.792 861.682 330.902 849.088 332.973C849.088 332.973 854.583 353.53 869.177 361.983L869.622 357.792Z" fill="#FA5959"/>
<path d="M871.004 335.37C871.004 335.37 863.556 312.964 851.153 312.067C851.153 312.067 856.219 334.116 870.758 341.196L871.004 335.37Z" fill="#FA5959"/>
<path d="M872.505 314.448C872.505 314.448 863.222 292.018 855.035 291.51C855.035 291.51 859.069 313.599 871.711 318.131L872.505 314.448Z" fill="#FA5959"/>
<path d="M873.529 294.987C873.529 294.987 867.82 270.628 859.617 268.604C859.617 268.604 860.737 288.534 872.703 296.812L873.529 294.987Z" fill="#FA5959"/>
<path d="M876.626 269.493C876.626 269.493 870.623 250.071 863.977 247.111C863.977 247.111 865.287 270.009 875.093 274.239L876.626 269.493Z" fill="#FA5959"/>
<path d="M879.19 252.825L880.397 218.585C880.397 218.585 867.971 244.396 878.293 258.833L879.19 252.825Z" fill="#FA5959"/>
<path d="M888.783 218.768C888.783 218.768 897.732 193.766 899.9 192.369C899.9 192.369 882.351 208.592 884.066 229.459L888.783 218.768Z" fill="#FA5959"/>
<path d="M815.722 487.895C815.722 487.895 831.46 485.84 830.992 508.071C830.992 508.071 816.77 510.389 812.125 491.999L815.722 487.895Z" fill="#FA5959"/>
<path d="M830.531 469.553C830.531 469.553 848.715 469.497 847.206 492.253C847.206 492.253 831.937 494.983 826.902 473.855L830.531 469.553Z" fill="#FA5959"/>
<path d="M840.679 453.163C840.679 453.163 857.187 445.424 867.748 465.402C867.748 465.402 852.502 471.847 839.218 456.393L840.679 453.163Z" fill="#FA5959"/>
<path d="M851.049 433.828C851.049 433.828 867.955 425.598 877.88 445.107C877.88 445.107 860.268 451.171 849.652 436.916L851.049 433.828Z" fill="#FA5959"/>
<path d="M857.029 417.018C857.029 417.018 873.299 401.485 886.282 417.193C886.282 417.193 869.662 429.979 856.282 420.478L857.029 417.018Z" fill="#FA5959"/>
<path d="M862.476 395.31C862.476 395.31 878.841 379.436 891.721 396.041C891.721 396.041 873.354 409.081 861.888 398.644L862.476 395.31Z" fill="#FA5959"/>
<path d="M865.533 375.952C865.533 375.952 878.142 356.109 892.991 360.538C892.991 360.538 879.905 381.547 865.676 380.611L865.533 375.952Z" fill="#FA5959"/>
<path d="M869.249 357.665C869.249 357.665 881.954 332.679 893.976 337.029C893.976 337.029 884.812 356.236 868.923 361.88L869.249 357.665Z" fill="#FA5959"/>
<path d="M870.13 334.068C870.13 334.068 883.192 314.401 895.429 316.805C895.429 316.805 884.749 336.751 868.86 339.759L870.13 334.068Z" fill="#FA5959"/>
<path d="M871.147 314.012C871.147 314.012 881.271 291.939 889.497 291.788C889.497 291.788 884.638 313.702 871.83 317.758L871.147 314.012Z" fill="#FA5959"/>
<path d="M873.132 294.51C873.132 294.51 884.384 272.16 892.84 272.112C892.84 272.112 887.083 291.224 873.505 296.471L873.132 294.51Z" fill="#FA5959"/>
<path d="M874.823 270.89C874.823 270.89 883.24 252.397 890.212 250.301C890.212 250.301 886.004 272.842 875.752 275.795L874.823 270.89Z" fill="#FA5959"/>
<path d="M880.191 252.151L899.002 223.506C899.002 223.506 894.182 251.762 877.444 257.635L880.191 252.151Z" fill="#FA5959"/>
<path d="M893.102 221.077C893.102 221.077 914.963 205.997 915.757 203.56C915.757 203.56 904.64 224.681 883.995 228.411L893.102 221.077Z" fill="#FA5959"/>
<path d="M894.413 214.291C894.413 214.291 919.513 190.171 925.921 190.194C925.921 190.194 905.22 191.139 893.809 213.005L894.413 214.291Z" fill="#FA5959"/>
<path d="M875.069 274.469L875.983 274.589C880.699 237.689 887.576 215.855 895.341 213.18L895.04 212.307C886.805 215.164 879.881 236.666 875.069 274.469Z" fill="#444053"/>
<path d="M868.129 362.713L869.511 362.824C869.805 359.379 870.027 355.855 870.178 352.339C871.496 321.798 873.537 293.748 876.221 272.723L875.427 271.731C872.735 292.804 870.115 321.695 868.796 352.284C868.646 355.776 868.423 359.284 868.129 362.713Z" fill="#444053"/>
<path d="M762.362 529.826C762.6 529.723 786.922 518.865 812.165 492.975C826.954 477.811 839.243 460.398 848.572 441.384C860.244 417.629 867.359 388.437 869.741 360.078L868.304 360.753C862.944 424.407 833.953 467.902 810.902 491.594C785.905 517.254 761.853 528.001 761.615 528.104L762.362 529.826Z" fill="#444053"/>
<path d="M825.338 67.6471H62.349C60.5463 67.6471 58.8174 68.3629 57.5427 69.637C56.268 70.9112 55.5519 72.6393 55.5519 74.4412V94.236H832.135V74.4412C832.135 72.6393 831.419 70.9112 830.144 69.637C828.87 68.3629 827.141 67.6471 825.338 67.6471Z" fill="#3F3D56"/>
<path d="M55.5519 94.236V539.692C55.5519 543.325 56.9958 546.81 59.5661 549.379C62.1363 551.948 65.6223 553.391 69.2572 553.391H818.43C822.065 553.391 825.551 551.948 828.121 549.379C830.691 546.81 832.135 543.325 832.135 539.692V94.236H55.5519Z" fill="white"/>
<path opacity="0.8" d="M67.8517 83.918C69.6059 83.918 71.028 82.4966 71.028 80.7432C71.028 78.9898 69.6059 77.5684 67.8517 77.5684C66.0976 77.5684 64.6755 78.9898 64.6755 80.7432C64.6755 82.4966 66.0976 83.918 67.8517 83.918Z" fill="#FA5959"/>
<path opacity="0.8" d="M76.5864 83.918C78.3405 83.918 79.7626 82.4966 79.7626 80.7432C79.7626 78.9898 78.3405 77.5684 76.5864 77.5684C74.8322 77.5684 73.4102 78.9898 73.4102 80.7432C73.4102 82.4966 74.8322 83.918 76.5864 83.918Z" fill="#FED253"/>
<path opacity="0.8" d="M85.321 83.918C87.0752 83.918 88.4972 82.4966 88.4972 80.7432C88.4972 78.9898 87.0752 77.5684 85.321 77.5684C83.5668 77.5684 82.1448 78.9898 82.1448 80.7432C82.1448 82.4966 83.5668 83.918 85.321 83.918Z" fill="#8CCF4D"/>
<path opacity="0.05" d="M751.864 168.51H127.739V442.829H751.864V168.51Z" fill="black"/>
<path d="M747.1 170.59H132.503V438.861H747.1V170.59Z" fill="#3F3D56"/>
<path d="M300.049 239.634C287.956 239.634 276.135 243.218 266.08 249.934C256.025 256.649 248.188 266.194 243.561 277.361C238.933 288.528 237.722 300.817 240.081 312.672C242.441 324.527 248.264 335.417 256.815 343.964C265.365 352.511 276.26 358.331 288.12 360.689C299.981 363.048 312.274 361.837 323.447 357.212C334.619 352.586 344.168 344.753 350.886 334.702C357.605 324.652 361.191 312.836 361.191 300.749C361.191 292.723 359.609 284.776 356.536 277.361C353.464 269.946 348.96 263.209 343.283 257.534C337.605 251.859 330.865 247.357 323.447 244.286C316.029 241.215 308.078 239.634 300.049 239.634ZM311.014 302.217V331.155H289.4V302.217C286.409 299.954 284.205 296.809 283.098 293.226C281.992 289.643 282.039 285.804 283.233 282.249C284.427 278.695 286.708 275.605 289.754 273.415C292.799 271.226 296.456 270.049 300.207 270.049C303.959 270.049 307.615 271.226 310.661 273.415C313.707 275.605 315.988 278.695 317.182 282.249C318.376 285.804 318.423 289.643 317.316 293.226C316.21 296.809 314.005 299.954 311.014 302.217Z" fill="#FA5959"/>
<path opacity="0.05" d="M300.049 239.634C287.956 239.634 276.135 243.218 266.08 249.934C256.025 256.649 248.188 266.194 243.561 277.361C238.933 288.528 237.722 300.817 240.081 312.672C242.441 324.527 248.264 335.417 256.815 343.964C265.365 352.511 276.26 358.331 288.12 360.689C299.981 363.048 312.274 361.837 323.447 357.212C334.619 352.586 344.168 344.753 350.886 334.702C357.605 324.652 361.191 312.836 361.191 300.749C361.191 292.723 359.609 284.776 356.536 277.361C353.464 269.946 348.96 263.209 343.283 257.534C337.605 251.859 330.865 247.357 323.447 244.286C316.029 241.215 308.078 239.634 300.049 239.634ZM311.014 302.217V331.155H289.4V302.217C286.409 299.954 284.205 296.809 283.098 293.226C281.992 289.643 282.039 285.804 283.233 282.249C284.427 278.695 286.708 275.605 289.754 273.415C292.799 271.226 296.456 270.049 300.207 270.049C303.959 270.049 307.615 271.226 310.661 273.415C313.707 275.605 315.988 278.695 317.182 282.249C318.376 285.804 318.423 289.643 317.316 293.226C316.21 296.809 314.005 299.954 311.014 302.217Z" fill="black"/>
<path d="M300.048 222.172C284.501 222.172 269.302 226.781 256.374 235.415C243.447 244.049 233.371 256.321 227.421 270.679C221.471 285.037 219.915 300.836 222.948 316.078C225.981 331.321 233.468 345.322 244.462 356.311C255.456 367.3 269.463 374.783 284.712 377.815C299.961 380.847 315.767 379.291 330.132 373.344C344.496 367.397 356.773 357.325 365.411 344.403C374.049 331.482 378.66 316.29 378.66 300.749C378.66 279.909 370.377 259.923 355.635 245.187C340.892 230.451 320.897 222.172 300.048 222.172ZM314.143 302.638V339.839H286.351V302.638C282.504 299.728 279.668 295.683 278.245 291.076C276.821 286.468 276.881 281.53 278.417 276.958C279.952 272.386 282.886 268.412 286.803 265.597C290.72 262.781 295.422 261.266 300.247 261.266C305.072 261.266 309.774 262.781 313.691 265.597C317.608 268.412 320.541 272.386 322.077 276.958C323.613 281.53 323.673 286.468 322.249 291.076C320.826 295.683 317.99 299.728 314.143 302.638Z" fill="#FA5959"/>
<path d="M665.313 290.439H411.216V317.424H665.313V290.439Z" fill="white"/>
<path d="M665.313 339.648H610.523V366.634H665.313V339.648Z" fill="#FA5959"/>
<path d="M436.229 303.527H431.631L435.72 299.447C435.794 299.372 435.835 299.271 435.835 299.165C435.835 299.06 435.794 298.959 435.72 298.884C435.684 298.847 435.64 298.817 435.591 298.797C435.543 298.777 435.491 298.766 435.438 298.766C435.386 298.766 435.334 298.777 435.286 298.797C435.237 298.817 435.194 298.847 435.157 298.884L431.067 302.971V298.368C431.067 298.263 431.025 298.162 430.951 298.087C430.876 298.013 430.776 297.971 430.67 297.971C430.566 297.973 430.466 298.015 430.392 298.089C430.318 298.163 430.275 298.263 430.273 298.368V302.971L426.192 298.86C426.155 298.823 426.111 298.793 426.063 298.773C426.014 298.753 425.962 298.743 425.91 298.743C425.857 298.743 425.806 298.753 425.757 298.773C425.709 298.793 425.665 298.823 425.628 298.86C425.555 298.935 425.514 299.036 425.514 299.142C425.514 299.247 425.555 299.348 425.628 299.423L429.717 303.503H425.112C425.007 303.505 424.907 303.548 424.833 303.622C424.759 303.695 424.717 303.795 424.715 303.9C424.715 304.005 424.757 304.106 424.831 304.18C424.906 304.255 425.007 304.297 425.112 304.297H429.717L425.628 308.384C425.555 308.46 425.514 308.561 425.514 308.666C425.514 308.771 425.555 308.872 425.628 308.948C425.704 309.019 425.805 309.059 425.91 309.059C426.015 309.059 426.115 309.019 426.192 308.948L430.273 304.86V309.456C430.273 309.561 430.315 309.662 430.389 309.736C430.464 309.811 430.565 309.853 430.67 309.853C430.776 309.853 430.876 309.811 430.951 309.736C431.025 309.662 431.067 309.561 431.067 309.456V304.86L435.157 308.948C435.233 309.019 435.334 309.059 435.438 309.059C435.543 309.059 435.644 309.019 435.72 308.948C435.794 308.872 435.835 308.771 435.835 308.666C435.835 308.561 435.794 308.46 435.72 308.384L431.631 304.297H436.229C436.334 304.297 436.435 304.255 436.509 304.18C436.584 304.106 436.626 304.005 436.626 303.9C436.62 303.799 436.575 303.704 436.501 303.635C436.427 303.565 436.33 303.527 436.229 303.527Z" fill="#FA5959"/>
<path d="M452.904 303.527H448.306L452.395 299.447C452.469 299.372 452.51 299.271 452.51 299.165C452.51 299.06 452.469 298.959 452.395 298.884C452.359 298.847 452.315 298.817 452.266 298.797C452.218 298.777 452.166 298.766 452.114 298.766C452.061 298.766 452.009 298.777 451.961 298.797C451.912 298.817 451.869 298.847 451.832 298.884L447.742 302.971V298.368C447.742 298.263 447.7 298.162 447.626 298.087C447.552 298.013 447.451 297.971 447.345 297.971C447.241 297.973 447.141 298.015 447.067 298.089C446.993 298.163 446.95 298.263 446.948 298.368V302.971L442.867 298.86C442.83 298.823 442.786 298.793 442.738 298.773C442.689 298.753 442.637 298.743 442.585 298.743C442.532 298.743 442.481 298.753 442.432 298.773C442.384 298.793 442.34 298.823 442.303 298.86C442.23 298.935 442.189 299.036 442.189 299.142C442.189 299.247 442.23 299.348 442.303 299.423L446.392 303.503H441.787C441.682 303.505 441.582 303.548 441.508 303.622C441.434 303.695 441.392 303.795 441.39 303.9C441.39 304.005 441.432 304.106 441.506 304.18C441.581 304.255 441.682 304.297 441.787 304.297H446.392L442.303 308.384C442.23 308.46 442.189 308.561 442.189 308.666C442.189 308.771 442.23 308.872 442.303 308.948C442.379 309.019 442.48 309.059 442.585 309.059C442.69 309.059 442.79 309.019 442.867 308.948L446.948 304.86V309.456C446.948 309.561 446.99 309.662 447.065 309.736C447.139 309.811 447.24 309.853 447.345 309.853C447.451 309.853 447.552 309.811 447.626 309.736C447.7 309.662 447.742 309.561 447.742 309.456V304.86L451.832 308.948C451.908 309.019 452.009 309.059 452.114 309.059C452.218 309.059 452.319 309.019 452.395 308.948C452.469 308.872 452.51 308.771 452.51 308.666C452.51 308.561 452.469 308.46 452.395 308.384L448.306 304.297H452.904C453.009 304.297 453.11 304.255 453.184 304.18C453.259 304.106 453.301 304.005 453.301 303.9C453.295 303.799 453.25 303.704 453.176 303.635C453.102 303.565 453.005 303.527 452.904 303.527Z" fill="#FA5959"/>
<path d="M469.579 303.527H464.981L469.071 299.447C469.144 299.372 469.185 299.271 469.185 299.165C469.185 299.06 469.144 298.959 469.071 298.884C469.034 298.847 468.99 298.817 468.941 298.797C468.893 298.777 468.841 298.766 468.789 298.766C468.736 298.766 468.684 298.777 468.636 298.797C468.588 298.817 468.544 298.847 468.507 298.884L464.417 302.971V298.368C464.417 298.263 464.376 298.162 464.301 298.087C464.227 298.013 464.126 297.971 464.02 297.971C463.916 297.973 463.816 298.015 463.742 298.089C463.668 298.163 463.625 298.263 463.623 298.368V302.971L459.542 298.86C459.505 298.823 459.461 298.793 459.413 298.773C459.364 298.753 459.312 298.743 459.26 298.743C459.208 298.743 459.156 298.753 459.107 298.773C459.059 298.793 459.015 298.823 458.978 298.86C458.905 298.935 458.864 299.036 458.864 299.142C458.864 299.247 458.905 299.348 458.978 299.423L463.067 303.503H458.462C458.357 303.505 458.257 303.548 458.183 303.622C458.109 303.695 458.067 303.795 458.065 303.9C458.065 304.005 458.107 304.106 458.181 304.18C458.256 304.255 458.357 304.297 458.462 304.297H463.067L458.978 308.384C458.905 308.46 458.864 308.561 458.864 308.666C458.864 308.771 458.905 308.872 458.978 308.948C459.055 309.019 459.155 309.059 459.26 309.059C459.365 309.059 459.465 309.019 459.542 308.948L463.623 304.86V309.456C463.623 309.561 463.665 309.662 463.74 309.736C463.814 309.811 463.915 309.853 464.02 309.853C464.126 309.853 464.227 309.811 464.301 309.736C464.376 309.662 464.417 309.561 464.417 309.456V304.86L468.507 308.948C468.583 309.019 468.684 309.059 468.789 309.059C468.893 309.059 468.994 309.019 469.071 308.948C469.144 308.872 469.185 308.771 469.185 308.666C469.185 308.561 469.144 308.46 469.071 308.384L464.981 304.297H469.579C469.684 304.297 469.785 304.255 469.859 304.18C469.934 304.106 469.976 304.005 469.976 303.9C469.97 303.799 469.925 303.704 469.851 303.635C469.778 303.565 469.68 303.527 469.579 303.527Z" fill="#FA5959"/>
<path d="M486.254 303.527H481.656L485.746 299.447C485.819 299.372 485.86 299.271 485.86 299.165C485.86 299.06 485.819 298.959 485.746 298.884C485.709 298.847 485.665 298.817 485.616 298.797C485.568 298.777 485.516 298.766 485.464 298.766C485.411 298.766 485.359 298.777 485.311 298.797C485.263 298.817 485.219 298.847 485.182 298.884L481.092 302.971V298.368C481.092 298.263 481.051 298.162 480.976 298.087C480.902 298.013 480.801 297.971 480.695 297.971C480.591 297.973 480.491 298.015 480.417 298.089C480.343 298.163 480.3 298.263 480.298 298.368V302.971L476.217 298.86C476.18 298.823 476.136 298.793 476.088 298.773C476.039 298.753 475.987 298.743 475.935 298.743C475.883 298.743 475.831 298.753 475.782 298.773C475.734 298.793 475.69 298.823 475.653 298.86C475.58 298.935 475.539 299.036 475.539 299.142C475.539 299.247 475.58 299.348 475.653 299.423L479.743 303.503H475.137C475.032 303.505 474.933 303.548 474.858 303.622C474.784 303.695 474.742 303.795 474.74 303.9C474.74 304.005 474.782 304.106 474.856 304.18C474.931 304.255 475.032 304.297 475.137 304.297H479.743L475.653 308.384C475.58 308.46 475.539 308.561 475.539 308.666C475.539 308.771 475.58 308.872 475.653 308.948C475.73 309.019 475.83 309.059 475.935 309.059C476.04 309.059 476.14 309.019 476.217 308.948L480.298 304.86V309.456C480.298 309.561 480.34 309.662 480.415 309.736C480.489 309.811 480.59 309.853 480.695 309.853C480.801 309.853 480.902 309.811 480.976 309.736C481.051 309.662 481.092 309.561 481.092 309.456V304.86L485.182 308.948C485.258 309.019 485.359 309.059 485.464 309.059C485.568 309.059 485.669 309.019 485.746 308.948C485.819 308.872 485.86 308.771 485.86 308.666C485.86 308.561 485.819 308.46 485.746 308.384L481.656 304.297H486.254C486.359 304.297 486.46 304.255 486.534 304.18C486.609 304.106 486.651 304.005 486.651 303.9C486.645 303.799 486.6 303.704 486.526 303.635C486.453 303.565 486.355 303.527 486.254 303.527Z" fill="#FA5959"/>
<path d="M502.929 303.527H498.331L502.421 299.447C502.494 299.372 502.535 299.271 502.535 299.165C502.535 299.06 502.494 298.959 502.421 298.884C502.384 298.847 502.34 298.817 502.292 298.797C502.243 298.777 502.191 298.766 502.139 298.766C502.087 298.766 502.035 298.777 501.986 298.797C501.938 298.817 501.894 298.847 501.857 298.884L497.768 302.971V298.368C497.768 298.263 497.726 298.162 497.651 298.087C497.577 298.013 497.476 297.971 497.371 297.971C497.266 297.973 497.166 298.015 497.092 298.089C497.018 298.163 496.976 298.263 496.974 298.368V302.971L492.892 298.86C492.855 298.823 492.811 298.793 492.763 298.773C492.715 298.753 492.663 298.743 492.61 298.743C492.558 298.743 492.506 298.753 492.458 298.773C492.409 298.793 492.365 298.823 492.328 298.86C492.255 298.935 492.214 299.036 492.214 299.142C492.214 299.247 492.255 299.348 492.328 299.423L496.418 303.503H491.812C491.708 303.505 491.608 303.548 491.534 303.622C491.46 303.695 491.417 303.795 491.415 303.9C491.415 304.005 491.457 304.106 491.532 304.18C491.606 304.255 491.707 304.297 491.812 304.297H496.418L492.328 308.384C492.255 308.46 492.214 308.561 492.214 308.666C492.214 308.771 492.255 308.872 492.328 308.948C492.405 309.019 492.506 309.059 492.61 309.059C492.715 309.059 492.816 309.019 492.892 308.948L496.974 304.86V309.456C496.974 309.561 497.015 309.662 497.09 309.736C497.164 309.811 497.265 309.853 497.371 309.853C497.476 309.853 497.577 309.811 497.651 309.736C497.726 309.662 497.768 309.561 497.768 309.456V304.86L501.857 308.948C501.934 309.019 502.034 309.059 502.139 309.059C502.244 309.059 502.344 309.019 502.421 308.948C502.494 308.872 502.535 308.771 502.535 308.666C502.535 308.561 502.494 308.46 502.421 308.384L498.331 304.297H502.929C503.034 304.297 503.135 304.255 503.21 304.18C503.284 304.106 503.326 304.005 503.326 303.9C503.32 303.799 503.275 303.704 503.202 303.635C503.128 303.565 503.03 303.527 502.929 303.527Z" fill="#FA5959"/>
<path d="M519.604 303.527H515.007L519.096 299.447C519.169 299.372 519.21 299.271 519.21 299.165C519.21 299.06 519.169 298.959 519.096 298.884C519.059 298.847 519.015 298.817 518.967 298.797C518.918 298.777 518.866 298.766 518.814 298.766C518.762 298.766 518.71 298.777 518.661 298.797C518.613 298.817 518.569 298.847 518.532 298.884L514.443 302.971V298.368C514.443 298.263 514.401 298.162 514.326 298.087C514.252 298.013 514.151 297.971 514.046 297.971C513.941 297.973 513.841 298.015 513.767 298.089C513.693 298.163 513.651 298.263 513.649 298.368V302.971L509.567 298.86C509.53 298.823 509.486 298.793 509.438 298.773C509.39 298.753 509.338 298.743 509.285 298.743C509.233 298.743 509.181 298.753 509.133 298.773C509.084 298.793 509.04 298.823 509.003 298.86C508.93 298.935 508.889 299.036 508.889 299.142C508.889 299.247 508.93 299.348 509.003 299.423L513.093 303.503H508.487C508.383 303.505 508.283 303.548 508.209 303.622C508.135 303.695 508.092 303.795 508.09 303.9C508.09 304.005 508.132 304.106 508.207 304.18C508.281 304.255 508.382 304.297 508.487 304.297H513.093L509.003 308.384C508.93 308.46 508.889 308.561 508.889 308.666C508.889 308.771 508.93 308.872 509.003 308.948C509.08 309.019 509.181 309.059 509.285 309.059C509.39 309.059 509.491 309.019 509.567 308.948L513.649 304.86V309.456C513.649 309.561 513.691 309.662 513.765 309.736C513.839 309.811 513.94 309.853 514.046 309.853C514.151 309.853 514.252 309.811 514.326 309.736C514.401 309.662 514.443 309.561 514.443 309.456V304.86L518.532 308.948C518.609 309.019 518.709 309.059 518.814 309.059C518.919 309.059 519.019 309.019 519.096 308.948C519.169 308.872 519.21 308.771 519.21 308.666C519.21 308.561 519.169 308.46 519.096 308.384L515.007 304.297H519.604C519.709 304.297 519.81 304.255 519.885 304.18C519.959 304.106 520.001 304.005 520.001 303.9C519.995 303.799 519.951 303.704 519.877 303.635C519.803 303.565 519.705 303.527 519.604 303.527Z" fill="#FA5959"/>
<path d="M536.279 303.527H531.682L535.771 299.447C535.844 299.372 535.885 299.271 535.885 299.165C535.885 299.06 535.844 298.959 535.771 298.884C535.734 298.847 535.69 298.817 535.642 298.797C535.593 298.777 535.541 298.766 535.489 298.766C535.437 298.766 535.385 298.777 535.336 298.797C535.288 298.817 535.244 298.847 535.207 298.884L531.118 302.971V298.368C531.118 298.263 531.076 298.162 531.001 298.087C530.927 298.013 530.826 297.971 530.721 297.971C530.616 297.973 530.516 298.015 530.442 298.089C530.368 298.163 530.326 298.263 530.324 298.368V302.971L526.242 298.86C526.205 298.823 526.161 298.793 526.113 298.773C526.065 298.753 526.013 298.743 525.96 298.743C525.908 298.743 525.856 298.753 525.808 298.773C525.759 298.793 525.715 298.823 525.679 298.86C525.605 298.935 525.564 299.036 525.564 299.142C525.564 299.247 525.605 299.348 525.679 299.423L529.768 303.503H525.162C525.058 303.505 524.958 303.548 524.884 303.622C524.81 303.695 524.767 303.795 524.765 303.9C524.765 304.005 524.807 304.106 524.882 304.18C524.956 304.255 525.057 304.297 525.162 304.297H529.768L525.679 308.384C525.605 308.46 525.564 308.561 525.564 308.666C525.564 308.771 525.605 308.872 525.679 308.948C525.755 309.019 525.856 309.059 525.96 309.059C526.065 309.059 526.166 309.019 526.242 308.948L530.324 304.86V309.456C530.324 309.561 530.366 309.662 530.44 309.736C530.514 309.811 530.615 309.853 530.721 309.853C530.826 309.853 530.927 309.811 531.001 309.736C531.076 309.662 531.118 309.561 531.118 309.456V304.86L535.207 308.948C535.284 309.019 535.384 309.059 535.489 309.059C535.594 309.059 535.694 309.019 535.771 308.948C535.844 308.872 535.885 308.771 535.885 308.666C535.885 308.561 535.844 308.46 535.771 308.384L531.682 304.297H536.279C536.384 304.297 536.485 304.255 536.56 304.18C536.634 304.106 536.676 304.005 536.676 303.9C536.67 303.799 536.626 303.704 536.552 303.635C536.478 303.565 536.38 303.527 536.279 303.527Z" fill="#FA5959"/>
<path d="M552.954 303.527H548.357L552.446 299.447C552.519 299.372 552.56 299.271 552.56 299.165C552.56 299.06 552.519 298.959 552.446 298.884C552.409 298.847 552.365 298.817 552.317 298.797C552.268 298.777 552.216 298.766 552.164 298.766C552.112 298.766 552.06 298.777 552.011 298.797C551.963 298.817 551.919 298.847 551.882 298.884L547.793 302.971V298.368C547.793 298.263 547.751 298.162 547.677 298.087C547.602 298.013 547.501 297.971 547.396 297.971C547.291 297.973 547.191 298.015 547.117 298.089C547.043 298.163 547.001 298.263 546.999 298.368V302.971L542.917 298.86C542.88 298.823 542.837 298.793 542.788 298.773C542.74 298.753 542.688 298.743 542.635 298.743C542.583 298.743 542.531 298.753 542.483 298.773C542.434 298.793 542.39 298.823 542.354 298.86C542.28 298.935 542.239 299.036 542.239 299.142C542.239 299.247 542.28 299.348 542.354 299.423L546.443 303.503H541.837C541.733 303.505 541.633 303.548 541.559 303.622C541.485 303.695 541.442 303.795 541.44 303.9C541.44 304.005 541.482 304.106 541.557 304.18C541.631 304.255 541.732 304.297 541.837 304.297H546.443L542.354 308.384C542.28 308.46 542.239 308.561 542.239 308.666C542.239 308.771 542.28 308.872 542.354 308.948C542.43 309.019 542.531 309.059 542.635 309.059C542.74 309.059 542.841 309.019 542.917 308.948L546.999 304.86V309.456C546.999 309.561 547.041 309.662 547.115 309.736C547.19 309.811 547.291 309.853 547.396 309.853C547.501 309.853 547.602 309.811 547.677 309.736C547.751 309.662 547.793 309.561 547.793 309.456V304.86L551.882 308.948C551.959 309.019 552.059 309.059 552.164 309.059C552.269 309.059 552.369 309.019 552.446 308.948C552.519 308.872 552.56 308.771 552.56 308.666C552.56 308.561 552.519 308.46 552.446 308.384L548.357 304.297H552.954C553.059 304.297 553.16 304.255 553.235 304.18C553.309 304.106 553.351 304.005 553.351 303.9C553.345 303.799 553.301 303.704 553.227 303.635C553.153 303.565 553.055 303.527 552.954 303.527Z" fill="#FA5959"/>
<path d="M569.629 303.527H565.032L569.121 299.447C569.195 299.372 569.235 299.271 569.235 299.165C569.235 299.06 569.195 298.959 569.121 298.884C569.084 298.847 569.04 298.817 568.992 298.797C568.944 298.777 568.892 298.766 568.839 298.766C568.787 298.766 568.735 298.777 568.687 298.797C568.638 298.817 568.594 298.847 568.557 298.884L564.468 302.971V298.368C564.468 298.263 564.426 298.162 564.352 298.087C564.277 298.013 564.176 297.971 564.071 297.971C563.966 297.973 563.867 298.015 563.793 298.089C563.719 298.163 563.676 298.263 563.674 298.368V302.971L559.593 298.86C559.556 298.823 559.512 298.793 559.463 298.773C559.415 298.753 559.363 298.743 559.311 298.743C559.258 298.743 559.206 298.753 559.158 298.773C559.11 298.793 559.066 298.823 559.029 298.86C558.956 298.935 558.915 299.036 558.915 299.142C558.915 299.247 558.956 299.348 559.029 299.423L563.118 303.503H558.513C558.408 303.505 558.308 303.548 558.234 303.622C558.16 303.695 558.118 303.795 558.116 303.9C558.116 304.005 558.158 304.106 558.232 304.18C558.306 304.255 558.407 304.297 558.513 304.297H563.118L559.029 308.384C558.956 308.46 558.915 308.561 558.915 308.666C558.915 308.771 558.956 308.872 559.029 308.948C559.105 309.019 559.206 309.059 559.311 309.059C559.415 309.059 559.516 309.019 559.593 308.948L563.674 304.86V309.456C563.674 309.561 563.716 309.662 563.79 309.736C563.865 309.811 563.966 309.853 564.071 309.853C564.176 309.853 564.277 309.811 564.352 309.736C564.426 309.662 564.468 309.561 564.468 309.456V304.86L568.557 308.948C568.634 309.019 568.735 309.059 568.839 309.059C568.944 309.059 569.045 309.019 569.121 308.948C569.195 308.872 569.235 308.771 569.235 308.666C569.235 308.561 569.195 308.46 569.121 308.384L565.032 304.297H569.629C569.735 304.297 569.836 304.255 569.91 304.18C569.985 304.106 570.026 304.005 570.026 303.9C570.02 303.799 569.976 303.704 569.902 303.635C569.828 303.565 569.731 303.527 569.629 303.527Z" fill="#FA5959"/>
<path d="M586.304 303.527H581.707L585.796 299.447C585.869 299.372 585.91 299.271 585.91 299.165C585.91 299.06 585.869 298.959 585.796 298.884C585.759 298.847 585.715 298.817 585.667 298.797C585.619 298.777 585.567 298.766 585.514 298.766C585.462 298.766 585.41 298.777 585.362 298.797C585.313 298.817 585.269 298.847 585.232 298.884L581.143 302.971V298.368C581.143 298.263 581.101 298.162 581.027 298.087C580.952 298.013 580.851 297.971 580.746 297.971C580.641 297.973 580.541 298.015 580.467 298.089C580.393 298.163 580.351 298.263 580.349 298.368V302.971L576.267 298.86C576.231 298.823 576.187 298.793 576.138 298.773C576.09 298.753 576.038 298.743 575.986 298.743C575.933 298.743 575.881 298.753 575.833 298.773C575.784 298.793 575.741 298.823 575.704 298.86C575.63 298.935 575.589 299.036 575.589 299.142C575.589 299.247 575.63 299.348 575.704 299.423L579.793 303.503H575.188C575.083 303.505 574.983 303.548 574.909 303.622C574.835 303.695 574.793 303.795 574.791 303.9C574.791 304.005 574.832 304.106 574.907 304.18C574.981 304.255 575.082 304.297 575.188 304.297H579.793L575.704 308.384C575.63 308.46 575.589 308.561 575.589 308.666C575.589 308.771 575.63 308.872 575.704 308.948C575.78 309.019 575.881 309.059 575.986 309.059C576.09 309.059 576.191 309.019 576.267 308.948L580.349 304.86V309.456C580.349 309.561 580.391 309.662 580.465 309.736C580.54 309.811 580.641 309.853 580.746 309.853C580.851 309.853 580.952 309.811 581.027 309.736C581.101 309.662 581.143 309.561 581.143 309.456V304.86L585.232 308.948C585.309 309.019 585.41 309.059 585.514 309.059C585.619 309.059 585.72 309.019 585.796 308.948C585.869 308.872 585.91 308.771 585.91 308.666C585.91 308.561 585.869 308.46 585.796 308.384L581.707 304.297H586.304C586.41 304.297 586.511 304.255 586.585 304.18C586.659 304.106 586.701 304.005 586.701 303.9C586.695 303.799 586.651 303.704 586.577 303.635C586.503 303.565 586.406 303.527 586.304 303.527Z" fill="#FA5959"/>
<path d="M602.98 303.527H598.382L602.471 299.447C602.545 299.372 602.586 299.271 602.586 299.165C602.586 299.06 602.545 298.959 602.471 298.884C602.434 298.847 602.391 298.817 602.342 298.797C602.294 298.777 602.242 298.766 602.189 298.766C602.137 298.766 602.085 298.777 602.037 298.797C601.988 298.817 601.944 298.847 601.908 298.884L597.818 302.971V298.368C597.818 298.263 597.776 298.162 597.702 298.087C597.627 298.013 597.527 297.971 597.421 297.971C597.317 297.973 597.217 298.015 597.143 298.089C597.069 298.163 597.026 298.263 597.024 298.368V302.971L592.943 298.86C592.906 298.823 592.862 298.793 592.814 298.773C592.765 298.753 592.713 298.743 592.661 298.743C592.608 298.743 592.557 298.753 592.508 298.773C592.46 298.793 592.416 298.823 592.379 298.86C592.306 298.935 592.265 299.036 592.265 299.142C592.265 299.247 592.306 299.348 592.379 299.423L596.468 303.503H591.863C591.758 303.505 591.658 303.548 591.584 303.622C591.51 303.695 591.468 303.795 591.466 303.9C591.466 304.005 591.508 304.106 591.582 304.18C591.657 304.255 591.758 304.297 591.863 304.297H596.468L592.379 308.384C592.306 308.46 592.265 308.561 592.265 308.666C592.265 308.771 592.306 308.872 592.379 308.948C592.455 309.019 592.556 309.059 592.661 309.059C592.765 309.059 592.866 309.019 592.943 308.948L597.024 304.86V309.456C597.024 309.561 597.066 309.662 597.14 309.736C597.215 309.811 597.316 309.853 597.421 309.853C597.527 309.853 597.627 309.811 597.702 309.736C597.776 309.662 597.818 309.561 597.818 309.456V304.86L601.908 308.948C601.984 309.019 602.085 309.059 602.189 309.059C602.294 309.059 602.395 309.019 602.471 308.948C602.545 308.872 602.586 308.771 602.586 308.666C602.586 308.561 602.545 308.46 602.471 308.384L598.382 304.297H602.98C603.085 304.297 603.186 304.255 603.26 304.18C603.335 304.106 603.377 304.005 603.377 303.9C603.371 303.799 603.326 303.704 603.252 303.635C603.178 303.565 603.081 303.527 602.98 303.527Z" fill="#FA5959"/>
<path d="M730.814 400.08C730.791 399.121 730.672 398.166 730.457 397.231C729.742 394.548 728.13 391.302 725.478 390.493C722.74 389.655 720.095 388.537 717.585 387.159C717.109 378.65 719.062 369.944 716.934 361.697C716.14 358.681 714.83 355.792 714.48 352.704C714.044 348.863 715.092 344.767 713.559 341.228C712.352 338.434 709.7 336.465 706.849 335.433C703.999 334.402 700.926 334.124 697.9 333.846C694.089 333.537 681.749 332.076 677.446 335.481C677.149 335.711 676.882 335.978 676.652 336.275C676.557 336.406 676.472 336.544 676.398 336.688L676.358 336.751C676.272 336.916 676.2 337.089 676.143 337.267C676.083 337.462 676.038 337.661 676.008 337.862C676.008 337.926 676.008 337.989 676.008 338.053C676.008 338.116 676.008 338.331 676.008 338.473V338.688C676.008 338.831 676.008 338.973 676.008 339.124C676.008 339.275 676.008 339.235 676.008 339.291C676.064 340.005 676.167 340.72 676.167 341.426C676.176 341.778 676.144 342.129 676.072 342.474C675.808 343.41 675.359 344.284 674.754 345.045L674.611 345.252C674.524 345.379 674.436 345.498 674.357 345.625C674.277 345.752 674.214 345.847 674.15 345.958C674.087 346.069 674.023 346.141 673.968 346.244C673.891 346.374 673.822 346.51 673.761 346.648C673.761 346.728 673.674 346.799 673.642 346.879C673.543 347.093 673.463 347.316 673.404 347.545C673.218 348.235 673.202 348.959 673.356 349.657C673.57 350.547 673.939 351.393 674.444 352.157C674.643 352.482 674.857 352.8 675.079 353.117L675.635 353.871C675.531 354.608 675.476 355.35 675.469 356.094C675.469 358.579 676.034 361.032 677.12 363.267C678.207 365.503 679.787 367.463 681.741 368.999C682.056 372.351 682.022 375.726 681.638 379.071C681.567 379.77 681.479 380.476 681.384 381.174C681.289 381.873 681.217 382.333 681.122 382.913C679.96 383.079 678.776 382.99 677.652 382.651C677.134 382.42 676.604 382.216 676.064 382.04C673.753 381.46 671.395 383.762 669.108 383.063C669.108 383.175 669.045 383.278 669.005 383.381C668.528 383.084 667.979 382.923 667.417 382.913C666.059 382.849 664.955 381.865 663.971 380.936L660.945 378.087C660.748 377.912 660.572 377.715 660.421 377.5C660.259 377.191 660.136 376.863 660.056 376.523C659.548 374.88 658.317 373.571 657.126 372.325C656.9 372.041 656.601 371.824 656.26 371.698C656.129 371.678 655.995 371.678 655.863 371.698C655.782 371.587 655.695 371.481 655.601 371.38C655.396 371.144 655.176 370.922 654.942 370.714C653.497 369.38 653.354 368.237 652.1 366.745C651.005 365.322 650.013 363.823 649.13 362.261C649.027 361.427 648.884 360.57 648.709 359.705C648.309 357.724 647.726 355.785 646.97 353.911L645.382 350.395L645.199 350.577C644.048 348.863 642.817 347.926 641.713 348.149C639.863 348.53 638.95 352.117 639.244 356.808L639.879 361.57C639.879 361.689 639.935 361.808 639.966 361.927C639.852 362.492 639.794 363.066 639.792 363.642C639.792 364.308 640.411 364.8 640.737 365.396C641.258 366.202 641.534 367.142 641.531 368.102C641.491 368.443 641.388 368.769 641.372 369.102C641.415 369.848 641.674 370.565 642.118 371.166L646.089 377.833L646.883 379.23L646.93 379.293C647.181 379.781 647.546 380.2 647.994 380.516C648.15 382.185 648.593 383.815 649.304 385.333C649.439 385.635 649.59 385.921 649.749 386.206C650.817 387.96 652.074 389.592 653.497 391.072L655.387 393.191C657.253 395.271 659.119 397.358 661.144 399.279C661.869 400.049 662.744 400.663 663.717 401.08C664.193 401.271 664.711 401.332 665.218 401.258C665.726 401.184 666.205 400.978 666.607 400.66C666.607 401.644 666.607 402.628 666.607 403.612C666.902 403.63 667.186 403.727 667.431 403.892C667.676 404.057 667.873 404.284 668.001 404.55C668.129 404.816 668.183 405.111 668.159 405.406C668.134 405.7 668.032 405.982 667.861 406.224C666.194 410.502 664.511 414.819 661.986 418.653C663.768 419.707 665.42 420.968 666.909 422.407C667.874 423.477 668.734 424.639 669.473 425.876C669.545 426.463 669.6 427.042 669.632 427.622C670.22 437.083 666.559 446.472 663.28 455.489C662.335 458.044 661.303 460.719 661.382 463.378C660.76 463.761 660.165 464.188 659.603 464.656C660.254 466.354 660 467.87 659.929 469.688C659.905 470.778 659.682 471.854 659.27 472.863C658.925 473.562 658.543 474.243 658.126 474.902C656.07 478.53 655.617 482.84 655.204 486.983C654.958 489.483 655.927 492.539 654.791 494.777C652.83 498.618 651.091 502.714 650.821 506.984C650.812 507.945 650.689 508.901 650.456 509.833C650.21 510.627 649.773 511.302 649.551 512.079C649.322 513.122 649.268 514.194 649.392 515.254C649.543 519.059 648.977 522.858 647.724 526.453C646.732 529.287 645.636 532.319 646.414 535.232C644.498 537.243 643.315 539.84 643.055 542.605C643.035 543.312 642.95 544.017 642.801 544.708C642.559 545.416 642.239 546.095 641.848 546.732C640.25 549.642 639.501 552.942 639.688 556.257C637.306 559.487 636.115 563.472 635.409 567.432C634.702 571.393 634.392 575.425 633.487 579.338C632.28 584.513 630.096 589.743 629.668 595.045C627.095 596.688 625.983 599.871 625.491 602.879C624.999 605.887 624.919 609.046 623.657 611.824C623.005 613.268 622.068 614.562 621.449 616.038C621.015 617.214 620.696 618.428 620.496 619.665C620.115 621.602 619.782 623.761 620.25 625.618C619.577 626.331 618.791 626.929 617.923 627.388C618.051 626.896 618.154 626.404 618.241 625.904C616.192 627.761 612.476 627.11 610.841 629.341C610.349 630.06 610.158 630.941 610.306 631.799C610.454 632.657 610.931 633.424 611.635 633.936C612.146 634.248 612.7 634.486 613.278 634.643C617.249 635.913 621.33 637.19 625.411 636.516C625.894 636.464 626.361 636.315 626.785 636.079C627.316 635.689 627.753 635.184 628.064 634.603C628.675 633.635 629.286 632.666 629.89 631.698C631.352 632.134 632.84 632.482 634.345 632.738C634.495 634.008 634.607 635.278 634.662 636.548C635.456 636.706 636.52 636.754 636.893 636.016C637.007 635.737 637.053 635.435 637.028 635.135C637.028 634.571 637.108 633.825 637.155 633.063H637.314C639.737 633.161 642.147 632.674 644.342 631.642C643.492 624.61 646.295 617.737 648.725 611.086C651.29 604.085 653.489 596.958 655.705 589.83C657.293 584.814 659.047 579.957 660.604 574.933C662.562 568.583 664.529 562.233 666.504 555.884C667.361 553.09 668.227 550.328 669.211 547.55C671.284 541.929 673.744 536.458 676.572 531.176C677.366 529.676 678.16 528.192 678.811 526.636C679.606 524.739 680.169 522.755 680.805 520.794C682.189 516.772 683.855 512.852 685.791 509.063C685.847 508.96 685.886 508.865 685.942 508.77C686.585 511.397 687.228 514.064 687.657 516.707C688.238 519.947 688.283 523.261 687.792 526.517C687.411 528.731 686.688 530.922 686.776 533.168C686.895 536.271 688.555 539.089 689.372 542.081C689.9 544.321 690.198 546.608 690.262 548.907C690.484 552.479 692.422 556.487 691.056 559.797C686.808 570.281 688.864 582.123 686.442 593.132C685.196 598.783 681.376 604.093 681.678 609.871C681.89 613.972 682.25 618.062 682.758 622.142C682.88 623.429 683.216 624.687 683.75 625.864C684.067 626.484 684.431 627.078 684.838 627.642C684.489 627.777 684.195 628.134 683.941 628.888C683.29 630.873 683.941 633.333 685.704 634.444C686.422 634.828 687.197 635.096 687.999 635.238C689.078 635.545 690.195 635.7 691.318 635.698C691.667 635.679 692.015 635.637 692.358 635.571C693.585 636.087 694.839 636.537 696.114 636.921C696.114 637.246 696.177 637.571 696.217 637.897C696.219 638.067 696.257 638.235 696.328 638.389C696.399 638.544 696.502 638.681 696.63 638.794C696.828 638.886 697.047 638.924 697.265 638.905H701.577C701.577 638.548 701.577 638.183 701.577 637.825C702.07 637.877 702.569 637.824 703.041 637.671C703.513 637.518 703.947 637.268 704.316 636.936C704.698 636.451 704.969 635.887 705.111 635.285C706.286 631.301 707.453 627.314 708.612 623.324C710.002 618.914 710.581 614.289 710.319 609.673C708.787 595.045 712.154 580.369 711.058 565.702C710.398 556.886 710.852 548.022 712.408 539.319C712.765 537.351 713.202 535.351 713.361 533.39C713.71 529.692 713.281 525.953 713.543 522.278C713.631 520.993 713.805 519.715 713.964 518.437C715.052 510.506 715.622 502.512 715.671 494.507C715.647 491.854 715.483 489.205 715.179 486.57C716.007 486.359 716.758 485.919 717.347 485.3C718.054 484.379 717.871 483.086 717.863 481.911C717.863 479.101 719.046 476.45 719.999 473.799C721.222 470.143 722.224 466.416 723 462.64C723.821 459.597 724.269 456.465 724.334 453.314C724.334 452.996 724.319 452.679 724.287 452.361C724.586 452.154 724.836 451.883 725.017 451.568C725.225 451.103 725.353 450.606 725.399 450.099C725.684 448.075 725.978 446.044 726.264 444.012C726.476 442.557 726.685 441.104 726.891 439.654L729.416 422.042C729.631 420.51 729.853 418.986 730.068 417.462L730.727 412.907C730.798 412.367 730.877 411.827 730.933 411.319C732.871 408.081 731.02 403.763 730.814 400.08ZM709.748 466.021C708.811 463.799 707.937 461.521 708.16 459.124H708.072C708.281 458.386 708.245 457.601 707.969 456.885C707.723 456.306 707.294 455.814 707.032 455.235C706.751 454.527 706.605 453.773 706.603 453.012C706.406 448.185 706.787 443.351 707.739 438.615C707.842 438.059 707.953 437.495 708.056 436.94C708.389 436.747 708.694 436.51 708.962 436.233C709.379 435.758 709.724 435.223 709.986 434.646C710.883 432.844 711.701 431.011 712.455 429.146C712.702 428.542 713.059 427.844 713.67 427.693C713.543 432.336 714.02 437.075 712.13 441.265C711.771 441.941 711.504 442.662 711.336 443.408C711.161 444.591 711.653 445.79 711.479 446.964C711.391 447.575 711.129 448.139 711.026 448.742C710.948 449.038 710.949 449.35 711.03 449.645C711.111 449.941 711.268 450.21 711.487 450.425C711.592 450.499 711.707 450.557 711.828 450.599C711.781 450.917 711.741 451.242 711.709 451.552C711.646 452.203 711.614 452.814 711.574 453.195C711.391 455.136 711.32 457.087 711.36 459.036C711.36 461.14 711.439 463.243 711.407 465.386C711.437 466.001 711.334 466.616 711.106 467.188C710.948 467.483 710.744 467.751 710.502 467.981C710.272 467.267 710.018 466.64 709.748 466.021Z" fill="url(#paint0_linear)"/>
<path d="M647.067 373.928C649.49 373.431 650.315 367.47 648.909 360.612C647.503 353.754 644.399 348.597 641.976 349.093C639.553 349.589 638.729 355.551 640.134 362.409C641.54 369.267 644.644 374.424 647.067 373.928Z" fill="#FBBEBE"/>
<path d="M684.068 629.039C683.417 631.007 684.068 633.468 685.831 634.539C686.545 634.92 687.314 635.187 688.11 635.333C689.187 635.637 690.302 635.789 691.421 635.785C692.795 635.722 694.113 635.182 695.487 634.992C695.645 634.952 695.813 634.975 695.955 635.055C696.024 635.129 696.075 635.217 696.105 635.313C696.136 635.409 696.144 635.511 696.13 635.611C696.144 636.391 696.203 637.17 696.304 637.944C696.306 638.114 696.343 638.283 696.414 638.437C696.485 638.592 696.589 638.73 696.717 638.841C696.916 638.934 697.135 638.972 697.353 638.952H701.656C701.754 635.173 701.34 631.398 700.426 627.729C700.366 627.449 700.258 627.18 700.108 626.936C699.743 626.536 699.263 626.259 698.734 626.142C697.682 625.704 696.545 625.506 695.407 625.563C694.017 625.745 692.858 626.642 691.675 627.388C690.492 628.134 688.88 628.793 687.443 628.412C686.006 628.031 684.807 626.832 684.068 629.039Z" fill="#3F3D56"/>
<path d="M620.878 625.555C619.668 626.85 618.184 627.858 616.534 628.507L615.804 628.856C615.703 628.895 615.616 628.964 615.557 629.055C615.543 629.117 615.543 629.181 615.557 629.242C615.571 629.304 615.598 629.362 615.637 629.412C616.245 630.352 617.143 631.067 618.195 631.45C619.247 631.832 620.395 631.861 621.465 631.531C621.938 631.413 622.376 631.184 622.744 630.865C623.349 630.147 623.696 629.247 623.728 628.309C623.969 627.341 623.927 626.325 623.609 625.38C622.505 622.896 622.1 624.023 620.878 625.555Z" fill="#FBBEBE"/>
<path d="M637.378 635.333C637.402 635.633 637.356 635.935 637.243 636.214C636.87 636.944 635.829 636.905 635.02 636.746C634.897 634.053 634.57 631.373 634.043 628.729C632.502 628.658 631.391 630.118 630.565 631.428L628.437 634.801C628.129 635.382 627.695 635.887 627.166 636.278C626.741 636.51 626.274 636.658 625.793 636.714C621.727 637.389 617.622 636.111 613.699 634.841C613.121 634.686 612.568 634.451 612.056 634.142C611.356 633.629 610.882 632.864 610.734 632.009C610.586 631.153 610.775 630.274 611.261 629.555C612.905 627.332 616.598 627.967 618.646 626.126C618.432 627.422 618.081 628.691 617.598 629.912C620.338 629.499 622.18 626.991 624.387 625.316C624.942 624.846 625.61 624.529 626.325 624.396C626.86 624.351 627.399 624.407 627.913 624.562C630.458 625.203 632.839 626.374 634.9 627.999C635.734 628.658 637.036 629.587 637.402 630.603C637.791 631.817 637.378 634.039 637.378 635.333Z" fill="#3F3D56"/>
<path d="M692.001 373.46C701.061 373.46 708.406 366.118 708.406 357.062C708.406 348.006 701.061 340.664 692.001 340.664C682.941 340.664 675.596 348.006 675.596 357.062C675.596 366.118 682.941 373.46 692.001 373.46Z" fill="#FBBEBE"/>
<path d="M724.319 453.877C724.253 457.012 723.807 460.128 722.993 463.156C722.216 466.916 721.214 470.627 719.991 474.267C719.046 476.91 717.863 479.561 717.871 482.363C717.871 483.53 718.062 484.824 717.347 485.744C716.711 486.391 715.908 486.849 715.028 487.07C714.589 487.186 714.184 487.404 713.844 487.706C713.505 488.008 713.242 488.386 713.075 488.808C712.329 487.695 711.772 486.467 711.423 485.173C709.999 480.813 708.676 476.429 707.453 472.021C707.341 471.768 707.293 471.49 707.312 471.214C707.332 470.937 707.418 470.67 707.564 470.434C707.766 470.259 708.001 470.126 708.255 470.045C709.069 469.713 709.815 469.234 710.455 468.632C710.755 468.366 711.003 468.045 711.185 467.688C711.416 467.119 711.522 466.507 711.495 465.894C711.495 463.791 711.495 461.695 711.439 459.592C711.406 457.65 711.48 455.708 711.662 453.774C711.662 453.393 711.733 452.782 711.797 452.131C711.916 450.885 712.154 449.44 712.829 448.956C713.837 448.282 716.855 449.187 717.998 449.345C719.967 449.615 721.968 449.933 723.89 450.306C724.169 451.476 724.313 452.674 724.319 453.877Z" fill="#3F3D56"/>
<path d="M658.079 375.42C657.444 376.69 655.919 377.301 654.744 378.103L650.718 380.865C650.449 381.107 650.134 381.293 649.791 381.41C649.449 381.527 649.086 381.574 648.725 381.548C648.397 381.427 648.097 381.241 647.842 381.003C647.587 380.764 647.382 380.477 647.24 380.159C647.242 380.137 647.242 380.116 647.24 380.095L646.406 378.698L642.436 372.047C641.995 371.451 641.738 370.739 641.698 369.999C641.698 369.658 641.817 369.34 641.848 368.999C641.859 368.041 641.583 367.101 641.054 366.301C640.737 365.705 640.101 365.213 640.117 364.546C640.087 363.67 640.238 362.798 640.562 361.983C640.979 361.229 641.576 360.591 642.301 360.126C642.674 359.856 643.055 359.602 643.452 359.332C643.663 359.188 643.897 359.081 644.143 359.014C644.802 358.879 645.453 359.427 646.12 359.451C648.987 361.372 650.091 365.007 652.346 367.626C653.616 369.118 653.743 370.261 655.181 371.595C655.411 371.801 655.633 372.023 655.848 372.253C656.132 372.563 656.372 372.91 656.562 373.285C656.824 373.968 658.404 374.769 658.079 375.42Z" fill="#3F3D56"/>
<path d="M686.236 373.468C687.419 375.968 688.34 378.714 687.999 381.46C687.929 382.204 687.693 382.923 687.308 383.563C686.165 385.318 683.767 385.635 681.678 385.738C681.238 385.701 680.795 385.752 680.375 385.889C679.955 386.025 679.567 386.244 679.232 386.532C678.953 386.937 678.817 387.424 678.844 387.915C678.872 388.406 679.061 388.874 679.383 389.246C680.054 389.962 680.888 390.507 681.813 390.834C685.116 392.286 688.682 393.485 692.271 393.151C693.938 392.993 695.558 392.508 697.218 392.262C699.027 392.067 700.845 391.966 702.665 391.961C704.825 391.881 706.977 391.667 709.129 391.453L714.83 390.889C715.141 390.894 715.444 390.784 715.679 390.58C716.1 390.088 715.56 389.365 715.036 388.992C712.011 386.754 708.16 385.214 706.437 381.849C705.643 380.262 705.396 378.373 704.809 376.658C704.221 374.944 703.284 373.396 702.919 371.65C702.724 370.118 702.637 368.575 702.657 367.031C702.677 365.474 702.11 363.966 701.069 362.808C699.933 361.753 698.29 361.483 696.749 361.419C692.954 361.253 688.912 362.157 686.22 364.832C685.498 365.554 684.878 366.42 684.132 367.07C683.385 367.721 682.369 367.912 682.861 368.769C683.354 369.626 684.322 370.158 684.846 370.912C685.377 371.726 685.842 372.58 686.236 373.468Z" fill="#FBBEBE"/>
<path d="M718.578 396.556C717.576 402.668 715.948 408.66 713.718 414.438C712.597 417.048 711.642 419.725 710.859 422.455C710.248 424.915 710.367 427.55 709.803 430.019C709.104 433.09 708.406 436.17 707.842 439.265C706.896 443.992 706.518 448.815 706.714 453.631C706.716 454.39 706.862 455.141 707.143 455.846C707.405 456.417 707.826 456.909 708.072 457.497C708.256 458.012 708.332 458.561 708.293 459.107C708.255 459.654 708.104 460.186 707.85 460.671C707.442 461.58 706.89 462.416 706.214 463.148C698.814 465.354 690.897 464.632 683.187 465.1C676.08 465.529 668.894 466.989 661.89 465.775C661.096 462.6 662.422 459.274 663.558 456.179C666.853 447.186 670.498 437.821 669.91 428.4C669.848 427.301 669.724 426.206 669.537 425.122C668.385 418.447 669.64 411.533 671.649 405.065C672.896 401.033 672.84 396.739 672.554 392.54C672.413 391.177 672.394 389.803 672.499 388.437C672.614 387.041 673.132 385.709 673.991 384.603C673.991 384.548 674.063 384.492 674.103 384.436C674.142 384.381 674.452 384.389 674.698 384.436C674.761 384.463 674.828 384.477 674.897 384.477C674.965 384.477 675.032 384.463 675.095 384.436L675.183 384.381C675.216 384.357 675.256 384.344 675.298 384.344C675.339 384.344 675.379 384.357 675.413 384.381C675.595 384.492 675.699 384.873 676.096 384.944C676.682 385.033 677.274 385.089 677.866 385.111C678.58 385.132 679.288 385.233 679.979 385.413H680.074C681.107 385.587 682.166 385.497 683.155 385.151C683.813 384.987 684.447 384.741 685.045 384.421C685.219 384.23 686.315 384.055 686.538 383.921C687.26 383.484 687.101 381.436 687.252 380.595C687.336 379.751 687.536 378.923 687.848 378.135C688.209 377.552 688.708 377.068 689.301 376.723C689.893 376.379 690.561 376.185 691.246 376.158C692.614 376.126 693.98 376.248 695.32 376.523C698.282 376.944 701.315 376.873 704.221 377.555C705.682 377.896 707.278 378.412 708.62 377.746C708.985 377.833 709.041 378.15 709.041 378.539C709.007 378.909 708.932 379.273 708.819 379.627C708.31 381.817 710.034 383.833 711.622 385.421C712.293 386.169 713.084 386.799 713.964 387.286C714.758 387.651 715.552 387.802 716.346 388.199C716.989 388.542 717.536 389.041 717.934 389.651C718.392 390.35 718.7 391.137 718.84 391.961C719.01 393.496 718.921 395.05 718.578 396.556Z" fill="#3F3D56"/>
<path opacity="0.1" d="M718.578 396.556C717.576 402.668 715.948 408.66 713.718 414.438C712.597 417.048 711.642 419.725 710.859 422.455C710.248 424.915 710.367 427.55 709.803 430.019C709.105 433.09 708.406 436.17 707.842 439.265C707.675 439.361 707.501 439.448 707.326 439.527C706.338 439.999 705.291 440.335 704.213 440.527C702.277 440.761 700.317 440.697 698.401 440.337L687.07 438.821C682.544 438.21 677.724 437.472 674.365 434.408C672.499 432.725 671.276 430.503 669.934 428.36C669.872 427.261 669.748 426.167 669.561 425.082C668.409 418.407 669.664 411.494 671.673 405.025C672.92 400.993 672.864 396.699 672.578 392.501C672.437 391.137 672.418 389.764 672.523 388.397C672.637 387.002 673.156 385.669 674.015 384.564C674.247 384.496 674.483 384.443 674.722 384.405C674.882 384.372 675.044 384.351 675.207 384.341H675.437C675.704 384.342 675.971 384.374 676.231 384.437C676.772 384.609 677.302 384.813 677.819 385.048H677.914C678.595 385.272 679.31 385.374 680.026 385.349C681.075 385.349 682.154 385.183 683.203 385.111C684.497 384.909 685.823 385.147 686.966 385.786C687.705 386.379 688.405 387.018 689.063 387.699C689.857 388.322 690.751 388.808 691.707 389.135C698.542 391.743 706.125 391.584 712.845 388.691C713.49 388.324 714.222 388.138 714.965 388.151C715.513 388.258 716.033 388.48 716.489 388.802C716.966 389.08 717.434 389.35 717.919 389.596C718.376 390.295 718.684 391.081 718.824 391.905C719.006 393.458 718.922 395.031 718.578 396.556Z" fill="black"/>
<path d="M725.494 391.302C722.332 390.337 719.294 389.005 716.442 387.334C715.984 387.014 715.465 386.792 714.917 386.683C714.173 386.674 713.439 386.86 712.789 387.222C706.072 390.115 698.492 390.274 691.659 387.667C690.705 387.337 689.811 386.851 689.015 386.23C688.355 385.551 687.655 384.913 686.919 384.317C684.306 382.627 680.693 384.611 677.771 383.524C677.253 383.292 676.723 383.088 676.183 382.913C673.872 382.333 671.522 384.635 669.251 383.937C668.406 386.232 667.781 388.603 667.385 391.016C667.062 393.788 666.89 396.576 666.869 399.366C666.869 401.041 666.79 402.715 666.869 404.39C667.149 404.436 667.416 404.539 667.654 404.694C667.892 404.848 668.095 405.05 668.251 405.287C668.355 405.564 668.397 405.86 668.376 406.154C668.354 406.449 668.268 406.735 668.124 406.993C666.464 411.256 664.781 415.565 662.263 419.383C664.037 420.44 665.684 421.697 667.171 423.129C669.95 426.066 671.316 430.185 674.317 432.9C677.7 435.956 682.52 436.702 687.022 437.305L698.353 438.821C700.272 439.18 702.234 439.247 704.173 439.019C705.249 438.823 706.293 438.484 707.278 438.011C707.922 437.742 708.509 437.355 709.009 436.868C709.428 436.393 709.773 435.858 710.034 435.281C710.931 433.487 711.749 431.654 712.503 429.796C712.765 429.138 713.162 428.368 713.877 428.312C718.085 424.518 722.056 420.629 726.264 416.835C727.955 415.434 729.472 413.836 730.782 412.073C732.871 408.986 730.973 404.612 730.782 400.882C730.759 399.928 730.639 398.978 730.425 398.048C729.742 395.342 728.138 392.104 725.494 391.302Z" fill="#FA5959"/>
<path opacity="0.1" d="M658.079 375.42C657.444 376.69 655.919 377.301 654.744 378.103L650.718 380.865C650.449 381.107 650.134 381.292 649.791 381.41C649.449 381.527 649.086 381.574 648.725 381.547C648.397 381.427 648.097 381.241 647.842 381.003C647.587 380.764 647.382 380.477 647.24 380.158C647.24 379.976 647.24 379.778 647.24 379.587C647.209 378.945 647.295 378.302 647.494 377.69C647.888 376.793 648.499 376.007 649.273 375.404C650.768 373.989 652.546 372.907 654.49 372.229C654.793 372.112 655.122 372.079 655.442 372.134C655.566 372.166 655.684 372.217 655.792 372.285C656.076 372.595 656.316 372.942 656.507 373.317C656.824 373.968 658.404 374.769 658.079 375.42Z" fill="black"/>
<path d="M667.56 383.786C666.21 383.722 665.106 382.746 664.122 381.817L661.112 379.024C660.911 378.853 660.734 378.656 660.588 378.436C660.425 378.128 660.303 377.8 660.223 377.46C659.585 375.857 658.585 374.423 657.301 373.269C657.077 372.985 656.777 372.77 656.435 372.65C656.112 372.591 655.779 372.624 655.474 372.745C653.53 373.422 651.752 374.504 650.257 375.92C649.485 376.524 648.874 377.309 648.479 378.206C648.279 378.818 648.193 379.461 648.225 380.103C648.243 382.2 648.715 384.269 649.606 386.167C649.741 386.461 649.892 386.754 650.051 387.04C651.111 388.79 652.362 390.417 653.783 391.889L655.673 394.001C657.531 396.08 659.389 398.16 661.406 400.073C662.129 400.843 663.005 401.454 663.979 401.866C664.467 402.066 665.001 402.127 665.523 402.043C666.044 401.959 666.531 401.733 666.933 401.39C667.313 400.95 667.599 400.437 667.774 399.882C668.997 396.707 670.156 393.405 670.228 389.985C670.245 388.615 670.187 387.245 670.053 385.881C669.934 384.437 668.91 383.873 667.56 383.786Z" fill="#FA5959"/>
<path d="M715.679 494.904C715.633 502.888 715.066 510.86 713.98 518.77C713.821 520.048 713.646 521.326 713.559 522.604C713.297 526.31 713.726 530.033 713.376 533.716C713.194 535.708 712.781 537.684 712.432 539.629C710.88 548.308 710.426 557.148 711.082 565.94C712.177 580.568 708.819 595.204 710.343 609.792C710.528 612.629 710.371 615.477 709.875 618.276C709.591 620.013 709.179 621.727 708.644 623.404C707.485 627.378 706.32 631.346 705.15 635.309C705.012 635.912 704.741 636.476 704.356 636.96C703.951 637.31 703.476 637.57 702.962 637.722C702.449 637.874 701.909 637.914 701.378 637.841C696.797 637.698 692.485 635.722 688.324 633.793C687.846 633.605 687.403 633.336 687.014 633C686.148 632.103 686.22 630.69 685.839 629.507C685.458 628.325 684.425 627.213 683.838 625.999C683.355 624.85 683.062 623.631 682.972 622.388C682.443 618.324 682.083 614.244 681.892 610.149C681.591 604.387 685.402 599.085 686.657 593.481C689.039 582.465 687.022 570.654 691.254 560.201C692.588 556.9 690.651 552.899 690.46 549.344C690.392 547.05 690.094 544.768 689.571 542.534C688.777 539.549 687.101 536.74 686.982 533.644C686.895 531.406 687.617 529.223 687.991 527.017C688.486 523.77 688.44 520.463 687.856 517.23C687.435 514.564 686.792 511.897 686.148 509.293L686.006 509.587C684.071 513.367 682.407 517.279 681.027 521.294C680.392 523.239 679.836 525.223 679.042 527.112C678.391 528.699 677.589 530.152 676.802 531.644C673.983 536.906 671.529 542.356 669.457 547.955C668.473 550.701 667.607 553.51 666.75 556.265L660.866 575.313C659.278 580.322 657.539 585.163 655.982 590.164C653.783 597.307 651.583 604.387 649.027 611.371C646.644 617.999 643.81 624.864 644.659 631.865C642.47 632.893 640.065 633.38 637.648 633.285C633.555 632.923 629.54 631.95 625.737 630.396C624.22 629.833 622.648 629.198 621.624 627.952C619.861 625.801 620.298 622.65 620.83 619.911C621.03 618.677 621.349 617.465 621.783 616.292C622.386 614.832 623.371 613.538 623.99 612.094C625.237 609.324 625.316 606.188 625.808 603.18C626.301 600.172 627.397 596.997 629.969 595.362C630.406 590.076 632.582 584.862 633.781 579.695C634.686 575.782 634.988 571.758 635.702 567.789C636.417 563.821 637.568 559.852 639.966 556.638C639.777 553.323 640.526 550.022 642.126 547.113C642.513 546.474 642.83 545.796 643.071 545.089C643.219 544.4 643.304 543.699 643.325 542.994C643.588 540.236 644.768 537.645 646.676 535.636C645.882 532.739 646.986 529.715 647.978 526.906C649.228 523.32 649.794 519.532 649.646 515.738C649.523 514.679 649.574 513.606 649.797 512.563C650.019 511.77 650.456 511.095 650.71 510.333C650.936 509.4 651.056 508.444 651.067 507.484C651.377 503.19 653.116 499.142 655.037 495.308C656.181 493.07 655.212 490.03 655.45 487.538C655.863 483.395 656.316 479.109 658.372 475.498C658.754 474.815 659.167 474.164 659.508 473.458C659.922 472.449 660.145 471.373 660.167 470.283C660.239 468.466 660.493 466.957 659.842 465.267C664.09 461.735 669.886 460.743 675.413 460.505C680.939 460.267 686.53 460.767 691.937 459.592C693.525 459.235 695.113 458.743 696.789 458.505C700.592 457.949 704.451 458.814 708.207 459.671C707.945 462.052 708.819 464.338 709.795 466.553C713.608 475.523 715.608 485.158 715.679 494.904Z" fill="#33313F"/>
<path opacity="0.1" d="M696.979 496.721L687.856 517.231C687.435 514.564 686.792 511.897 686.149 509.294L686.006 509.587V509.159L690.976 498.229L696.979 496.721Z" fill="black"/>
<path opacity="0.1" d="M724.319 453.877C723.792 454.271 723.164 454.505 722.508 454.552C721.502 454.588 720.498 454.451 719.538 454.147L712.392 452.361C712.168 452.306 711.95 452.229 711.741 452.131C711.86 450.885 712.098 449.441 712.773 448.956C713.781 448.282 716.799 449.187 717.942 449.345C719.912 449.615 721.913 449.933 723.834 450.306C724.132 451.474 724.295 452.672 724.319 453.877Z" fill="black"/>
<path d="M730.361 406.652C730.512 407.311 730.727 407.962 730.854 408.628C731.067 410.264 731.011 411.924 730.687 413.542L730.036 418.081L729.385 422.645L726.868 440.21L726.248 444.559L725.375 450.631C725.334 451.136 725.205 451.631 724.994 452.092C724.734 452.523 724.37 452.883 723.936 453.139C723.503 453.396 723.012 453.54 722.508 453.56C721.503 453.592 720.499 453.455 719.539 453.155L712.392 451.361C712.079 451.306 711.781 451.184 711.519 451.004C711.3 450.791 711.143 450.523 711.062 450.229C710.981 449.935 710.979 449.624 711.058 449.33C711.161 448.726 711.423 448.163 711.511 447.56C711.685 446.385 711.193 445.178 711.368 444.012C711.539 443.269 711.806 442.551 712.162 441.877C714.544 436.614 713.162 430.471 713.972 424.757C714.701 420.259 716.602 416.032 719.483 412.502C721.261 410.273 723.303 408.269 725.565 406.533C726.455 405.843 727.868 404.422 728.988 404.152C730.425 403.85 730.123 405.652 730.361 406.652Z" fill="#FA5959"/>
<path d="M676.279 338.283C675.755 339.95 676.572 341.783 676.199 343.482C675.794 345.355 674.031 346.657 673.531 348.538C672.737 351.403 675.167 354.014 676.946 356.395C683.536 365.237 682.671 377.476 680.416 388.262C678.601 396.916 676.092 405.41 672.912 413.661C671.919 416.224 670.823 418.828 668.87 420.748C672.523 419.701 676.406 418.645 680.066 419.661C684.703 420.947 688.706 425.447 693.406 424.423C696.233 423.796 698.218 421.288 700.759 419.899C705.524 417.336 711.265 418.947 716.577 419.772C717.721 420.042 718.919 419.982 720.031 419.598C720.881 419.141 721.602 418.478 722.127 417.669C724.498 414.629 725.918 410.956 726.209 407.113C726.334 405.199 726.052 403.28 725.38 401.483C724.707 399.687 723.661 398.053 722.31 396.691C721.182 395.628 719.832 394.771 718.967 393.517C718.125 392.052 717.674 390.396 717.657 388.707C717.029 379.976 719.157 371.063 716.966 362.618C716.172 359.61 714.877 356.729 714.528 353.649C714.091 349.815 715.132 345.712 713.607 342.204C712.408 339.418 709.764 337.442 706.913 336.426C704.062 335.41 701.013 335.124 697.988 334.838C693.637 334.473 678.097 332.608 676.279 338.283Z" fill="#33313F"/>
<g opacity="0.1">
<path opacity="0.1" d="M680.416 388.262C678.61 396.88 676.114 405.339 672.952 413.557C673.5 412.47 673.96 411.327 674.397 410.192C677.58 401.942 680.09 393.449 681.901 384.794C684.164 373.999 685.029 361.776 678.439 352.927C676.85 350.815 674.81 348.53 674.881 346.053C674.294 346.802 673.838 347.645 673.531 348.545C672.737 351.411 675.167 354.022 676.946 356.403C683.536 365.237 682.671 377.476 680.416 388.262Z" fill="black"/>
<path opacity="0.1" d="M676.294 342.68C676.932 341.889 677.407 340.98 677.692 340.005C677.815 338.826 677.783 337.636 677.597 336.465C676.985 336.925 676.526 337.559 676.278 338.283C675.81 339.688 676.35 341.212 676.294 342.68Z" fill="black"/>
<path opacity="0.1" d="M723.62 414.176C723.094 414.983 722.373 415.644 721.524 416.097C720.414 416.489 719.214 416.55 718.07 416.272C712.757 415.478 706.953 413.843 702.252 416.407C699.703 417.788 697.726 420.296 694.891 420.931C690.198 421.979 686.196 417.478 681.559 416.169C678.272 415.256 674.81 416.01 671.498 416.962C670.84 418.365 669.952 419.647 668.87 420.756C672.523 419.709 676.406 418.653 680.066 419.669C684.704 420.955 688.706 425.455 693.406 424.431C696.233 423.804 698.218 421.296 700.759 419.907C705.524 417.343 711.265 418.955 716.577 419.78C717.721 420.05 718.919 419.989 720.031 419.605C720.881 419.149 721.602 418.485 722.127 417.677C723.566 415.779 724.677 413.655 725.415 411.391C724.884 412.361 724.284 413.292 723.62 414.176Z" fill="black"/>
</g>
</g>
<defs>
<linearGradient id="paint0_linear" x1="610.309" y1="486.078" x2="731.799" y2="486.078" gradientUnits="userSpaceOnUse">
<stop stop-color="#808080" stop-opacity="0.25"/>
<stop offset="0.54" stop-color="#808080" stop-opacity="0.12"/>
<stop offset="1" stop-color="#808080" stop-opacity="0.1"/>
</linearGradient>
<clipPath id="clip0">
<rect width="926" height="639" fill="white"/>
</clipPath>
</defs>
</svg>
