<svg width="135" height="135" viewBox="0 0 135 135" fill="none" xmlns="http://www.w3.org/2000/svg">
<path d="M48.3863 53.7806L34.5853 61.4166C34.0678 61.7006 33.75 62.2294 33.75 62.8003V78.0806C33.75 78.6516 34.0678 79.1775 34.5853 79.4644L48.3891 87.106C48.9037 87.39 49.5422 87.39 50.0569 87.106L63.8578 79.4644C64.3697 79.1775 64.6875 78.6516 64.6875 78.0806V62.8003C64.6875 62.2294 64.3697 61.7035 63.8522 61.4166L50.0541 53.7806C49.7953 53.6372 49.5056 53.5669 49.2187 53.5669C48.9291 53.5669 48.6422 53.6372 48.3834 53.7806H48.3863ZM119.393 67.5366L117.093 68.8078C117.006 68.8556 116.955 68.9428 116.955 69.0385V71.5866C116.955 71.6822 117.008 71.7694 117.093 71.8172L119.393 73.0913C119.481 73.1391 119.585 73.1391 119.672 73.0913L121.972 71.8172C122.057 71.7694 122.11 71.6822 122.11 71.5866V69.0385C122.11 68.9428 122.057 68.8556 121.97 68.8078L119.669 67.5366C119.627 67.5113 119.579 67.5 119.531 67.5C119.483 67.5 119.436 67.5113 119.393 67.5366Z" fill="#388E3C"/>
<path d="M100.55 37.5856L93.8306 33.8365C93.6197 33.7184 93.3609 33.7212 93.1528 33.845C92.9447 33.9687 92.8153 34.1909 92.8153 34.4328L92.8125 57.079L86.6166 53.6506C86.3578 53.5072 86.0681 53.4368 85.7812 53.4368C85.4944 53.4368 85.2047 53.5072 84.9459 53.6506H84.9488L71.1478 61.2865C70.6303 61.5706 70.3125 62.0993 70.3125 62.6675V77.9478C70.3125 78.5187 70.6303 79.0447 71.1478 79.3315L84.9516 86.9731C85.4662 87.2572 86.1047 87.2572 86.6194 86.9731L100.42 79.3315C100.932 79.0475 101.25 78.5187 101.25 77.9478V38.7781C101.25 38.2831 100.98 37.8275 100.55 37.5856ZM92.4356 74.4125L86.1637 77.8859C85.9303 78.0153 85.6406 78.0153 85.4072 77.8859L79.1325 74.4125C78.8934 74.2831 78.75 74.0412 78.75 73.7825V66.8356C78.75 66.5768 78.8934 66.3378 79.1297 66.2056L85.4044 62.735H85.4016C85.5197 62.6703 85.6491 62.6393 85.7812 62.6393C85.9134 62.6393 86.0428 62.6731 86.1609 62.735L92.4328 66.2056C92.6691 66.3378 92.8125 66.5797 92.8125 66.8384V73.7853C92.8125 74.0412 92.6691 74.2831 92.4356 74.4125Z" fill="#37474F"/>
<path d="M48.3863 53.7806L33.75 78.0806C33.75 78.6516 34.0678 79.1775 34.5853 79.4644L48.3891 87.106C48.9037 87.39 49.5422 87.39 50.0569 87.106L64.6875 62.8003C64.6875 62.2294 64.3697 61.7035 63.8522 61.4166L50.0541 53.7806C49.7953 53.6372 49.5056 53.5669 49.2188 53.5669C48.9291 53.5669 48.6422 53.6372 48.3834 53.7806" fill="#2E7D32"/>
<path d="M48.3863 53.7806L34.5853 61.4166C34.0678 61.7006 33.75 62.2294 33.75 62.8003L48.3863 87.106C48.9009 87.39 49.5394 87.39 50.0541 87.106L63.855 79.4644C64.3697 79.1775 64.6875 78.6516 64.6875 78.0806L50.0541 53.7806C49.7953 53.6372 49.5056 53.5669 49.2188 53.5669C48.9291 53.5669 48.6422 53.6372 48.3834 53.7806" fill="#4CAF50"/>
<path d="M134.165 61.2872L120.367 53.6513C120.108 53.5078 119.818 53.4375 119.531 53.4375C119.244 53.4375 118.955 53.5078 118.696 53.6513H118.699L104.898 61.2872C104.383 61.5712 104.062 62.1112 104.062 62.7019V77.9203C104.062 78.5081 104.383 79.0509 104.898 79.335L118.702 86.9766C119.219 87.2634 119.852 87.2634 120.369 86.9766L126.734 83.4525C127.316 83.1291 127.313 82.2937 126.728 81.9731L112.88 74.4159C112.646 74.2837 112.5 74.0391 112.5 73.7747V66.8391C112.5 66.5803 112.641 66.3412 112.866 66.2175L119.152 62.7413H119.149C119.267 62.6766 119.396 62.6456 119.528 62.6456C119.661 62.6456 119.79 62.6794 119.908 62.7413L126.194 66.2203C126.419 66.3441 126.56 66.5831 126.56 66.8419V72.5006C126.56 72.7425 126.689 72.9675 126.9 73.0884C127.111 73.2066 127.37 73.2066 127.581 73.0856L134.325 69.1678C134.741 68.9259 135 68.4787 135 67.995V62.7075C135 62.1141 134.679 61.5712 134.165 61.2872ZM30.1022 61.2872L16.3041 53.6513C16.0453 53.5078 15.7556 53.4375 15.4688 53.4375C15.1819 53.4375 14.8922 53.5078 14.6334 53.6513H14.6362L0.835312 61.2872C0.320625 61.5712 0 62.1112 0 62.7019V83.6972C0 83.9391 0.129375 84.1641 0.340313 84.285C0.55125 84.4031 0.81 84.4031 1.02094 84.2822L7.76531 80.3644C8.18156 80.1225 8.4375 79.6753 8.4375 79.1916V66.8362C8.4375 66.5775 8.57812 66.3384 8.80313 66.2147L15.0891 62.7384C15.2072 62.6737 15.3366 62.6428 15.4688 62.6428C15.6009 62.6428 15.7303 62.6766 15.8484 62.7384L22.1344 66.2175C22.3594 66.3412 22.5 66.5803 22.5 66.8391V79.1944C22.5 79.6781 22.7559 80.1253 23.175 80.3672L29.9194 84.285C30.1303 84.4059 30.3891 84.4059 30.6 84.2878C30.8081 84.1641 30.9375 83.9391 30.9375 83.6972V62.7047C30.9375 62.1141 30.6169 61.5712 30.1022 61.2872Z" fill="#37474F"/>
</svg>
