<svg width="55" height="55" viewBox="0 0 55 55" fill="none" xmlns="http://www.w3.org/2000/svg">
<g clip-path="url(#clip0)">
<path d="M42.9688 20.625H41.25V13.75C41.25 6.16688 35.0831 0 27.5 0C19.9169 0 13.75 6.16688 13.75 13.75V20.625H12.0312C9.18958 20.625 6.875 22.9373 6.875 25.7812V49.8438C6.875 52.6877 9.18958 55 12.0312 55H42.9688C45.8104 55 48.125 52.6877 48.125 49.8438V25.7812C48.125 22.9373 45.8104 20.625 42.9688 20.625ZM18.3333 13.75C18.3333 8.69458 22.4446 4.58333 27.5 4.58333C32.5554 4.58333 36.6667 8.69458 36.6667 13.75V20.625H18.3333V13.75ZM29.7917 38.3213V43.5417C29.7917 44.8067 28.7673 45.8333 27.5 45.8333C26.2327 45.8333 25.2083 44.8067 25.2083 43.5417V38.3213C23.8448 37.526 22.9167 36.064 22.9167 34.375C22.9167 31.8473 24.9723 29.7917 27.5 29.7917C30.0277 29.7917 32.0833 31.8473 32.0833 34.375C32.0833 36.064 31.1552 37.526 29.7917 38.3213Z" fill="black" fill-opacity="0.6"/>
</g>
<defs>
<clipPath id="clip0">
<rect width="55" height="55" fill="white"/>
</clipPath>
</defs>
</svg>
