<svg width="138" height="138" viewBox="0 0 138 138" fill="none" xmlns="http://www.w3.org/2000/svg">
<path d="M69 11.5C37.26 11.5 11.5 37.26 11.5 69C11.5 100.74 37.26 126.5 69 126.5C100.74 126.5 126.5 100.74 126.5 69C126.5 37.26 100.74 11.5 69 11.5ZM69 28.75C78.545 28.75 86.25 36.455 86.25 46C86.25 55.545 78.545 63.25 69 63.25C59.455 63.25 51.75 55.545 51.75 46C51.75 36.455 59.455 28.75 69 28.75ZM69 110.4C54.625 110.4 41.9175 103.04 34.5 91.885C34.6725 80.4425 57.5 74.175 69 74.175C80.4425 74.175 103.327 80.4425 103.5 91.885C96.0825 103.04 83.375 110.4 69 110.4Z" fill="black"/>
</svg>
